<?xml version="1.0" encoding="UTF-8"?>
<!DOCTYPE svg PUBLIC "-//W3C//DTD SVG 1.1//EN" "http://www.w3.org/Graphics/SVG/1.1/DTD/svg11.dtd">
<!-- Creator: CorelDRAW 2021 (64-Bit) -->
<svg xmlns="http://www.w3.org/2000/svg" xml:space="preserve" width="250px" height="250px" version="1.1" style="shape-rendering:geometricPrecision; text-rendering:geometricPrecision; image-rendering:optimizeQuality; fill-rule:evenodd; clip-rule:evenodd"
viewBox="0 0 250 250"
 xmlns:xlink="http://www.w3.org/1999/xlink"
 xmlns:xodm="http://www.corel.com/coreldraw/odm/2003">
 <defs>
  <style type="text/css">
   <![CDATA[
    .fil0 {fill:black}
   ]]>
  </style>
 </defs>
 <g id="Capa_x0020_1">
  <metadata id="CorelCorpID_0Corel-Layer"/>
  <path class="fil0" d="M69.44 152.76c0,-23.68 33.21,-14.88 94.24,-14.88 22.46,0 14.88,25.44 14.88,79.36l-109.12 0 0 -64.48zm-9.92 -9.92l0 74.4c-42.37,0 -29.76,9.19 -29.76,-173.6 0,-17.63 9.66,-14.88 29.76,-14.88 0,92.95 -21.33,74.4 109.12,74.4 23.91,0 14.88,-46.75 14.88,-69.44 49.77,33.33 34.72,51.46 34.72,168.64 0,17.63 -9.66,14.88 -29.76,14.88 0,-111.43 24.28,-89.28 -114.08,-89.28 -11.43,0 -14.88,3.45 -14.88,14.88zm9.92 -64.48l0 -49.6 104.16 0c0,79.25 16.54,64.48 -89.28,64.48 -11.43,0 -14.88,-3.45 -14.88,-14.88zm-49.6 -44.64l0 178.56c0,11.43 3.45,14.88 14.88,14.88l178.56 0c11.43,0 14.88,-3.45 14.88,-14.88l0 -143.84c0,-12.16 -37.44,-49.6 -49.6,-49.6l-143.84 0c-11.43,0 -14.88,3.45 -14.88,14.88z"/>
  <path class="fil0" d="M148.8 48.6l4.96 0 0 24.8 -4.96 0 0 -24.8zm-9.92 34.72l24.8 0 0 -44.64 -24.8 0 0 44.64z"/>
  <path class="fil0" d="M39.68 202.36c0,5.83 10.67,11.18 7.68,0 -3,-11.21 12.62,-0.14 -2.29,-1.47 -6.25,-0.56 -5.39,-8.61 -5.39,1.47z"/>
  <path class="fil0" d="M198.4 202.36c0,5.83 10.67,11.18 7.68,0 -3.01,-11.21 12.62,-0.14 -2.29,-1.47 -6.25,-0.56 -5.39,-8.61 -5.39,1.47z"/>
 </g>
</svg>
